PathFileType	4	(X/Y/Z)	c:/Users/goper/Files/vsCode/490R/osim_files/C05/C05_Slow_03.trc
DataRate	CameraRate	NumFrames	NumMarkers	Units                	OrigDataRate	OrigDataStartFrame	OrigNumFrames
250.00	250.00	7	36	mm	250.0	1827	3653
                Frame#	Time	LPSIS			LASIS			LTH1			LTH2			LTH3			LTH4			LLFE			LMFE			LSH1			LSH2			LSH3			LSH4			LLMAL			LMMAL			LCAL			LMTP5			LTOE			LMTP1			RPSIS			RASIS			RTH1			RTH2			RTH3			RTH4			RLFE			RMFE			RSH1			RSH2			RSH3			RSH4			RLMAL			RMMAL			RCAL			RMTP1			RTOE			RMTP5		
		X1	Y1	Z1	X2	Y2	Z2	X3	Y3	Z3	X4	Y4	Z4	X5	Y5	Z5	X6	Y6	Z6	X7	Y7	Z7	X8	Y8	Z8	X9	Y9	Z9	X10	Y10	Z10	X11	Y11	Z11	X12	Y12	Z12	X13	Y13	Z13	X14	Y14	Z14	X15	Y15	Z15	X16	Y16	Z16	X17	Y17	Z17	X18	Y18	Z18	X19	Y19	Z19	X20	Y20	Z20	X21	Y21	Z21	X22	Y22	Z22	X23	Y23	Z23	X24	Y24	Z24	X25	Y25	Z25	X26	Y26	Z26	X27	Y27	Z27	X28	Y28	Z28	X29	Y29	Z29	X30	Y30	Z30	X31	Y31	Z31	X32	Y32	Z32	X33	Y33	Z33	X34	Y34	Z34	X35	Y35	Z35	X36	Y36	Z36

1827	7.30400	-512.56158	1029.77405	283.95786	-704.37537	984.15247	361.00696	-593.40698	680.32697	388.38663	-578.67828	621.22491	377.69131	-518.31299	692.03809	392.75528	-513.68298	630.24286	381.42499	-522.86115	520.09979	363.09192	-517.70502	515.23120	244.62346	-357.93509	399.34457	365.57004	-341.73087	358.39746	359.78326	-413.43323	368.58911	376.84668	-388.72064	333.23355	368.69556	-258.59555	140.57080	331.21930	-289.28281	146.68292	248.00157	-192.59276	134.62230	277.43692	-364.74966	37.26418	352.07916	-405.31693	52.60190	290.96475	-391.54794	46.42880	243.40839	-524.04944	1033.13623	176.01244	-719.33948	997.26971	129.71245	-712.29041	654.33765	73.59538	-742.71588	601.30072	88.81821	-781.27032	685.57825	78.81638	-802.40326	627.53467	91.52199	0.00000	0.00000	0.00000	-817.65686	538.39221	111.42310	-777.16364	369.59192	89.81808	-792.36835	324.20691	94.80605	-836.99286	380.81815	96.65267	-843.02527	334.50366	101.94118	-860.60248	99.87021	133.55901	-879.45074	114.26545	219.78645	-802.55621	68.61189	181.88889	-1016.53204	63.32640	214.27251	-1032.86853	92.75197	165.80168	-991.79083	51.33155	104.08926
1828	7.30800	-517.47614	1029.95825	283.54846	-709.33295	983.99792	360.45563	-598.57275	680.09290	387.80240	-583.88324	620.85504	377.15536	-523.49158	691.74127	391.85794	-518.89972	629.91687	380.62936	-528.21191	519.75922	362.64969	-523.15814	514.73071	244.35974	-362.31366	400.50946	365.41415	-345.77261	359.41843	359.45157	-417.53915	369.21030	376.76251	-392.48050	334.01208	368.62796	-260.39038	142.39185	331.74313	-291.38565	148.09163	248.53160	-194.44392	137.46132	277.86847	-364.98193	37.31986	352.14566	-405.46481	52.55032	291.06689	-391.96283	46.63904	243.47028	-528.75391	1033.66150	175.71240	-724.18726	997.72705	129.24362	-717.80420	655.15234	73.08224	-748.64667	602.54962	88.29089	-786.68268	686.49677	78.93224	-807.92010	628.36493	91.74066	0.00000	0.00000	0.00000	-822.61206	539.06659	111.84236	-780.99719	370.11417	89.20322	-795.85486	324.64487	94.19257	-840.92010	380.98242	96.57481	-846.49927	334.53897	101.84639	-861.36279	99.68578	133.32562	-880.39246	114.05135	219.51549	-802.95282	68.90498	181.74138	-1017.00983	61.59666	213.30630	-1033.88721	90.96957	165.46420	-992.29803	49.75153	103.88362
1829	7.31200	-522.53723	1030.15747	283.25293	-714.35352	983.90894	359.87802	-603.83710	679.77423	387.29520	-589.24310	620.58582	376.69385	-528.63568	691.41638	391.10959	-524.27075	629.57288	379.89145	-533.70782	519.42603	362.18259	-529.01648	514.24988	244.01872	-366.81723	401.68591	365.22388	-350.17648	361.15521	359.62247	-421.70697	369.80209	376.68936	-396.41791	335.02649	368.28241	-262.31812	144.21483	332.30579	-293.48795	149.66393	249.10350	-196.43713	140.44051	278.35349	-365.28751	37.41032	352.24167	-405.65396	52.54223	291.16919	-392.20654	46.93013	243.47290	-533.49908	1034.21692	175.53523	-729.09155	998.26172	128.69298	-723.48792	656.10040	72.65971	-754.06946	603.45532	88.27216	-792.62500	687.51898	78.64761	-813.47284	629.26593	92.04749	0.00000	0.00000	0.00000	-827.56720	539.74628	112.10017	-784.73071	370.66782	88.44962	-799.35132	325.10529	93.38548	-844.72687	381.06561	96.45701	-850.01599	334.67599	101.61195	-862.10815	99.47928	133.05861	-881.23041	113.90163	219.20317	-803.31812	69.18074	181.56601	-1017.56854	60.34522	213.09210	-1034.87805	89.39884	165.17099	-992.66229	48.39996	103.69901
1830	7.31600	-527.47101	1030.29858	282.96689	-719.34601	983.82581	359.18936	-609.23578	679.49005	386.74326	-594.72095	620.21735	376.12869	-534.08246	691.00684	390.29898	-529.85962	629.11139	379.14807	-539.36993	519.01953	361.77252	-534.87555	513.70758	243.68758	-371.50635	402.88419	365.11771	-354.31085	362.46405	359.49832	-426.18674	370.46439	376.68637	-400.88727	335.80219	368.02542	-264.43057	146.15195	332.88931	-295.75076	151.24956	249.74634	-198.63068	143.47348	278.76672	-365.65994	37.46669	352.36417	-405.78494	52.53824	291.31073	-392.69220	47.13710	243.69215	-537.89386	1034.83423	175.48926	-733.87854	998.79510	128.23207	-729.27466	657.08105	72.09131	-759.66632	604.45709	88.09194	-797.92163	688.55859	79.03605	-819.01538	630.22614	92.18361	0.00000	0.00000	0.00000	-832.41638	540.55957	112.38414	-788.48407	371.25552	87.57244	-802.66412	325.56107	92.54218	-848.41345	381.17508	96.24051	-853.29938	334.72025	101.35056	-862.68390	99.33537	132.83249	-882.15717	113.97681	218.96274	-803.64697	69.38969	181.41936	-1017.93311	59.24400	212.94147	-1035.68054	87.85219	165.04932	-993.01398	47.10326	103.56551
1831	7.32000	-532.46088	1030.47864	282.74307	-724.26953	983.78473	358.63254	-614.64966	679.17090	386.26526	-600.34674	619.92346	375.64789	-539.52148	690.58240	389.55167	-535.32391	628.69354	378.46176	-545.25409	518.58429	361.35010	-540.98584	513.05573	243.40547	-376.47025	404.08929	364.95917	-358.76071	363.62878	360.05554	-430.65320	371.10367	376.67694	-404.33127	336.63379	369.36404	-266.60547	148.14154	333.48969	-298.13977	152.87425	250.44359	-201.09221	146.63037	279.24594	-366.06253	37.53960	352.47763	-405.92328	52.58062	291.46298	-392.93732	47.56452	243.68700	-542.95081	1035.19141	174.55891	-738.65112	999.41772	127.62841	-734.90576	658.11365	71.54051	-765.18347	605.54614	87.84485	-803.46783	689.73712	79.11550	-824.63336	631.39667	92.40708	0.00000	0.00000	0.00000	-837.17523	541.26935	112.56035	-791.96051	371.83682	86.81854	-805.88593	326.06824	91.65029	-852.13055	381.34882	96.00880	-856.66748	334.86264	100.98347	-863.20178	99.22103	132.58638	-882.71149	113.86210	218.70810	-803.90405	69.58516	181.28925	-1018.26367	58.12216	212.95834	-1036.43408	86.47182	165.01561	-993.44531	45.98065	103.49155
1832	7.32400	-537.38202	1030.68884	282.49078	-729.20612	983.85895	357.98630	-620.23047	678.89099	385.70825	-605.98224	619.58911	375.23438	-544.97809	690.14447	388.79016	-541.04779	628.24591	377.77930	-551.22034	518.15216	361.00314	-547.30029	512.50073	243.13701	-381.58859	405.12039	365.19046	-363.39410	365.02646	360.00266	-435.15005	371.69357	377.12622	-408.44229	337.58505	369.56641	-268.96011	150.19054	334.09860	-300.66739	154.67088	251.06827	-203.51219	149.93651	279.67276	-366.54370	37.57798	352.60141	-406.11047	52.69235	291.59668	-393.51636	47.78431	243.93272	-548.29602	1035.48633	174.40445	-743.44897	1000.07092	127.03336	-740.45734	659.17609	70.97493	-770.72784	606.62518	87.56641	-809.28381	690.91711	78.81222	-830.13684	632.47253	92.48949	0.00000	0.00000	0.00000	-841.85864	541.92676	112.76831	-795.43298	372.73999	84.91515	-809.05347	326.51437	90.78507	-855.65308	381.41818	95.70379	-859.75464	334.93021	100.62485	-863.72345	99.10455	132.35052	-882.72662	113.90668	218.96344	-804.14935	69.75229	181.19077	-1018.68628	57.01094	212.98264	-1037.12061	85.17622	165.09167	-993.76691	45.00143	103.48622
1833	7.32800	-542.33997	1030.87756	282.33899	-734.19269	983.93365	357.27011	-625.88629	678.64172	385.29828	-611.87659	619.34778	374.82956	-550.58356	689.67578	388.06287	-546.88068	627.71649	377.11401	-557.47308	517.74353	360.67157	-553.91211	511.84439	242.80173	-386.86081	406.41650	365.01352	-368.35999	366.47849	360.00955	-440.11621	372.39423	377.20285	-413.14038	338.57172	369.66434	-271.48953	152.29887	334.73383	-303.48257	156.56245	251.78357	-206.25201	153.31491	280.11542	-367.00085	37.68986	352.70587	-406.31885	52.83426	291.69699	-394.19305	47.92809	244.26633	-553.09729	1035.96704	174.23805	-748.19196	1000.77277	126.44226	-745.99689	660.24213	70.34865	-776.17596	607.72046	87.17136	-814.39514	692.09241	79.22884	-835.57404	633.61102	92.57767	0.00000	0.00000	0.00000	-846.55853	542.64050	112.88612	-799.23218	373.27719	84.21289	-811.99274	327.04401	89.95811	-859.20844	381.52100	95.34605	-862.80963	334.97366	100.31686	-864.21924	99.02628	132.17216	-883.28448	113.80055	218.74644	-804.37628	69.91565	181.09402	-1018.95618	56.03467	213.11067	-1037.83496	83.83048	165.27663	-994.20569	44.20571	103.47537
